HIERARCHY
ROOT Hips
{
 OFFSET 0.000000 0.000000 0.000000
 CHANNELS 6 Xposition Yposition Zposition Yrotation Xrotation Zrotation
 JOINT Chest
 {
  OFFSET 0.000000 0.102018 -0.011335
  CHANNELS 3 Yrotation Xrotation Zrotation
  JOINT Chest2
  {
   OFFSET 0.000000 0.113281 0.000000
   CHANNELS 3 Yrotation Xrotation Zrotation
   JOINT Chest3
   {
    OFFSET 0.000000 0.103427 -0.000012
    CHANNELS 3 Yrotation Xrotation Zrotation
    JOINT Chest4
    {
     OFFSET 0.000000 0.103311 -0.000012
     CHANNELS 3 Yrotation Xrotation Zrotation
     JOINT Neck
     {
      OFFSET 0.000000 0.144629 0.000000
      CHANNELS 3 Yrotation Xrotation Zrotation
      JOINT Head
      {
       OFFSET 0.000000 0.096187 0.000027
       CHANNELS 3 Yrotation Xrotation Zrotation
       End Site
       {
        OFFSET 0.000000 0.178569 0.000004
       }
      }
     }
     JOINT RightCollar
     {
      OFFSET -0.031491 0.081079 0.000000
      CHANNELS 3 Yrotation Xrotation Zrotation
      JOINT RightShoulder
      {
       OFFSET -0.147266 0.000000 0.000000
       CHANNELS 3 Yrotation Xrotation Zrotation
       JOINT RightElbow
       {
        OFFSET -0.314897 0.000000 0.000000
        CHANNELS 3 Yrotation Xrotation Zrotation
        JOINT RightWrist
        {
         OFFSET -0.257483 0.000000 0.000000
         CHANNELS 3 Yrotation Xrotation Zrotation
         JOINT RightFinger0
         {
          OFFSET -0.028813 0.000000 0.028392
          CHANNELS 3 Yrotation Xrotation Zrotation
          JOINT RightFinger01
          {
           OFFSET -0.037259 0.000000 0.000000
           CHANNELS 3 Yrotation Xrotation Zrotation
           JOINT RightFinger02
           {
            OFFSET -0.032704 0.000000 0.000000
            CHANNELS 3 Yrotation Xrotation Zrotation
            End Site
            {
             OFFSET -0.032704 0.000000 0.000000
            }
           }
          }
         }
         JOINT RightFinger1
         {
          OFFSET -0.096272 0.000000 0.012724
          CHANNELS 3 Yrotation Xrotation Zrotation
          JOINT RightFinger11
          {
           OFFSET -0.043535 0.000000 0.000000
           CHANNELS 3 Yrotation Xrotation Zrotation
           JOINT RightFinger12
           {
            OFFSET -0.023766 0.000000 0.000000
            CHANNELS 3 Yrotation Xrotation Zrotation
            End Site
            {
             OFFSET -0.021347 0.000000 0.000000
            }
           }
          }
         }
         JOINT RightFinger2
         {
          OFFSET -0.096429 0.000000 0.000000
          CHANNELS 3 Yrotation Xrotation Zrotation
          JOINT RightFinger21
          {
           OFFSET -0.047636 0.000000 0.000000
           CHANNELS 3 Yrotation Xrotation Zrotation
           JOINT RightFinger22
           {
            OFFSET -0.028182 0.000000 0.000000
            CHANNELS 3 Yrotation Xrotation Zrotation
            End Site
            {
             OFFSET -0.022399 0.000000 0.000000
            }
           }
          }
         }
         JOINT RightFinger3
         {
          OFFSET -0.092742 0.000000 -0.012829
          CHANNELS 3 Yrotation Xrotation Zrotation
          JOINT RightFinger31
          {
           OFFSET -0.045218 0.000000 0.000000
           CHANNELS 3 Yrotation Xrotation Zrotation
           JOINT RightFinger32
           {
            OFFSET -0.026815 0.000000 0.000000
            CHANNELS 3 Yrotation Xrotation Zrotation
            End Site
            {
             OFFSET -0.022609 0.000000 0.000000
            }
           }
          }
         }
         JOINT RightFinger4
         {
          OFFSET -0.085173 0.000000 -0.022924
          CHANNELS 3 Yrotation Xrotation Zrotation
          JOINT RightFinger41
          {
           OFFSET -0.037751 0.000000 0.000000
           CHANNELS 3 Yrotation Xrotation Zrotation
           JOINT RightFinger42
           {
            OFFSET -0.020506 0.000000 0.000000
            CHANNELS 3 Yrotation Xrotation Zrotation
            End Site
            {
             OFFSET -0.021768 0.000000 0.000000
            }
           }
          }
         }
        }
       }
      }
     }
     JOINT LeftCollar
     {
      OFFSET 0.031491 0.081079 0.000000
      CHANNELS 3 Yrotation Xrotation Zrotation
      JOINT LeftShoulder
      {
       OFFSET 0.147266 0.000000 0.000000
       CHANNELS 3 Yrotation Xrotation Zrotation
       JOINT LeftElbow
       {
        OFFSET 0.314897 0.000000 0.000000
        CHANNELS 3 Yrotation Xrotation Zrotation
        JOINT LeftWrist
        {
         OFFSET 0.257483 0.000000 0.000000
         CHANNELS 3 Yrotation Xrotation Zrotation
         JOINT LeftFinger0
         {
          OFFSET 0.028813 0.000000 0.028392
          CHANNELS 3 Yrotation Xrotation Zrotation
          JOINT LeftFinger01
          {
           OFFSET 0.037259 0.000000 0.000000
           CHANNELS 3 Yrotation Xrotation Zrotation
           JOINT LeftFinger02
           {
            OFFSET 0.032704 0.000000 0.000000
            CHANNELS 3 Yrotation Xrotation Zrotation
            End Site
            {
             OFFSET 0.032704 0.000000 0.000000
            }
           }
          }
         }
         JOINT LeftFinger1
         {
          OFFSET 0.096272 0.000000 0.012724
          CHANNELS 3 Yrotation Xrotation Zrotation
          JOINT LeftFinger11
          {
           OFFSET 0.043535 0.000000 0.000000
           CHANNELS 3 Yrotation Xrotation Zrotation
           JOINT LeftFinger12
           {
            OFFSET 0.023766 0.000000 0.000000
            CHANNELS 3 Yrotation Xrotation Zrotation
            End Site
            {
             OFFSET 0.021347 0.000000 0.000000
            }
           }
          }
         }
         JOINT LeftFinger2
         {
          OFFSET 0.096429 0.000000 0.000000
          CHANNELS 3 Yrotation Xrotation Zrotation
          JOINT LeftFinger21
          {
           OFFSET 0.047636 0.000000 0.000000
           CHANNELS 3 Yrotation Xrotation Zrotation
           JOINT LeftFinger22
           {
            OFFSET 0.028182 0.000000 0.000000
            CHANNELS 3 Yrotation Xrotation Zrotation
            End Site
            {
             OFFSET 0.022399 0.000000 0.000000
            }
           }
          }
         }
         JOINT LeftFinger3
         {
          OFFSET 0.092742 0.000000 -0.012829
          CHANNELS 3 Yrotation Xrotation Zrotation
          JOINT LeftFinger31
          {
           OFFSET 0.045218 0.000000 0.000000
           CHANNELS 3 Yrotation Xrotation Zrotation
           JOINT LeftFinger32
           {
            OFFSET 0.026815 0.000000 0.000000
            CHANNELS 3 Yrotation Xrotation Zrotation
            End Site
            {
             OFFSET 0.022609 0.000000 0.000000
            }
           }
          }
         }
         JOINT LeftFinger4
         {
          OFFSET 0.085173 0.000000 -0.022924
          CHANNELS 3 Yrotation Xrotation Zrotation
          JOINT LeftFinger41
          {
           OFFSET 0.037751 0.000000 0.000000
           CHANNELS 3 Yrotation Xrotation Zrotation
           JOINT LeftFinger42
           {
            OFFSET 0.020506 0.000000 0.000000
            CHANNELS 3 Yrotation Xrotation Zrotation
            End Site
            {
             OFFSET 0.021768 0.000000 0.000000
            }
           }
          }
         }
        }
       }
      }
     }
    }
   }
  }
 }
 JOINT RightHip
 {
  OFFSET -0.083928 0.000042 -0.000005
  CHANNELS 3 Yrotation Xrotation Zrotation
  JOINT RightKnee
  {
   OFFSET 0.000000 -0.434494 -0.000003
   CHANNELS 3 Yrotation Xrotation Zrotation
   JOINT RightAnkle
   {
    OFFSET 0.000000 -0.424439 -0.000005
    CHANNELS 3 Yrotation Xrotation Zrotation
    JOINT RightToe
    {
     OFFSET 0.000000 -0.076670 0.174296
     CHANNELS 3 Yrotation Xrotation Zrotation
     End Site
     {
      OFFSET 0.000000 -0.016574 0.072387
     }
    }
   }
  }
 }
 JOINT LeftHip
 {
  OFFSET 0.083928 0.000019 -0.000002
  CHANNELS 3 Yrotation Xrotation Zrotation
  JOINT LeftKnee
  {
   OFFSET 0.000000 -0.434494 -0.000003
   CHANNELS 3 Yrotation Xrotation Zrotation
   JOINT LeftAnkle
   {
    OFFSET 0.000000 -0.424439 -0.000005
    CHANNELS 3 Yrotation Xrotation Zrotation
    JOINT LeftToe
    {
     OFFSET 0.000000 -0.076670 0.174296
     CHANNELS 3 Yrotation Xrotation Zrotation
     End Site
     {
      OFFSET 0.000000 -0.016574 0.072387
     }
    }
   }
  }
 }
}
MOTION
Frames: 4
Frame Time: 0.004167
0.356930 0.800579 0.268329 1.173967 6.637620 0.543961 -4.561282 1.710995 -1.027265 -1.978405 -5.055658 -0.441352 -1.970815 0.761320 -0.642165 -1.526297 6.409546 -0.482291 -3.287336 18.652617 -1.781362 -5.455459 -1.396606 -2.206935 9.931572 1.339557 2.692663 26.482297 -66.240684 25.200075 70.754687 29.271518 4.273499 11.887966 34.284771 -47.409687 25.046198 0.000000 -0.000000 -25.046198 0.000000 0.000000 0.000000 -0.000000 0.000000 0.000000 -0.000000 0.000000 0.000000 -0.000000 0.000000 0.000000 -0.000000 0.000000 0.000000 -0.000000 0.000000 0.000000 -0.000000 0.000000 0.000000 -0.000000 0.000000 0.000000 -0.000000 0.000000 0.000000 -0.000000 0.000000 0.000000 -0.000000 0.000000 0.000000 -0.000000 0.000000 0.000000 -0.000000 0.000000 0.000000 -0.000000 0.000000 -3.041480 1.263494 -7.113877 -13.446555 -41.064397 -62.806037 -9.607331 -23.181043 -7.973136 -10.976415 -0.297092 54.411413 -73.806025 61.129529 -39.609460 -0.000006 0.000010 -10.015545 0.000007 0.000002 3.354862 17.665989 3.441961 -2.086647 -1.020519 1.603280 -16.905625 -0.981872 1.662599 -10.743153 12.664589 1.029309 -13.698002 0.270117 -0.660804 -11.328480 0.258814 -0.671292 -7.207487 12.352547 -0.944994 -18.260326 2.057568 -3.405206 -16.165677 1.972978 -3.520723 -10.223607 9.022042 -0.967404 -17.636760 2.318277 -2.648311 -21.977532 2.240504 -2.824664 -13.925356 -11.439420 -38.422038 -31.923934 4.745560 48.180308 11.102917 8.369999 -14.410073 19.151910 0.000000 -0.000000 -0.000000 36.433546 -43.493338 28.728192 -4.747368 63.810827 -26.489835 -10.120747 -11.286375 -8.861232 0.000000 -4.482068 0.000000
0.357451 0.800331 0.268287 1.252670 6.624534 0.484652 -4.539604 1.728459 -1.009026 -1.969631 -5.048129 -0.433118 -1.962103 0.768880 -0.633041 -1.519066 6.415184 -0.475396 -3.330902 18.660275 -1.773673 -5.537827 -1.381661 -2.179036 9.904555 1.345833 2.782102 25.996221 -66.063004 25.616434 70.778748 29.287379 4.352353 11.986521 34.301615 -47.469343 25.046198 -0.000000 0.000000 -25.046198 0.000000 -0.000000 -0.000000 -0.000000 -0.000000 -0.000000 -0.000000 -0.000000 -0.000000 -0.000000 -0.000000 -0.000000 -0.000000 -0.000000 -0.000000 -0.000000 -0.000000 -0.000000 -0.000000 -0.000000 -0.000000 -0.000000 -0.000000 -0.000000 -0.000000 -0.000000 -0.000000 -0.000000 -0.000000 -0.000000 -0.000000 -0.000000 -0.000000 -0.000000 -0.000000 -0.000000 -0.000000 -0.000000 -0.000000 -0.000000 -0.000000 -3.039638 1.243564 -7.082989 -13.640866 -41.268628 -62.593008 -9.747789 -23.143589 -8.292757 -11.000314 -0.389200 54.431499 -73.806025 61.129529 -39.609460 -0.000006 0.000010 -10.015545 0.000007 0.000002 3.354862 17.665989 3.441961 -2.086647 -1.020519 1.603280 -16.905625 -0.981872 1.662599 -10.743153 12.664589 1.029309 -13.698002 0.270117 -0.660804 -11.328480 0.258814 -0.671292 -7.207487 12.352547 -0.944994 -18.260326 2.057568 -3.405206 -16.165677 1.972978 -3.520723 -10.223607 9.022042 -0.967404 -17.636760 2.318277 -2.648311 -21.977532 2.240504 -2.824664 -13.925356 -11.489090 -38.345625 -31.911865 4.709104 48.128746 11.093324 8.350469 -14.390992 19.200666 0.000000 -0.000000 -0.000000 36.465513 -43.579842 28.695939 -4.752291 63.895388 -26.480553 -10.058919 -11.379670 -8.767647 0.000000 -4.551146 -0.000000
0.357990 0.800085 0.268258 1.332296 6.616721 0.428187 -4.519235 1.743789 -0.992020 -1.961384 -5.041531 -0.425452 -1.953910 0.775506 -0.624539 -1.512272 6.420123 -0.468972 -3.373160 18.666463 -1.765883 -5.617826 -1.369425 -2.151339 9.874933 1.352647 2.874975 25.536726 -65.889831 26.010040 70.797496 29.301857 4.436385 12.079325 34.314773 -47.522396 25.046198 0.000000 -0.000000 -25.046198 -0.000000 0.000000 -0.000000 0.000000 -0.000000 -0.000000 0.000000 -0.000000 -0.000000 0.000000 -0.000000 -0.000000 0.000000 -0.000000 -0.000000 0.000000 -0.000000 -0.000000 0.000000 -0.000000 -0.000000 0.000000 -0.000000 -0.000000 0.000000 -0.000000 -0.000000 0.000000 -0.000000 -0.000000 0.000000 -0.000000 -0.000000 0.000000 -0.000000 -0.000000 0.000000 -0.000000 -0.000000 0.000000 -0.000000 -3.039686 1.215505 -7.054738 -13.825999 -41.465984 -62.381465 -9.887946 -23.113596 -8.616707 -11.029942 -0.485241 54.450985 -73.806025 61.129529 -39.609460 -0.000006 0.000010 -10.015545 0.000007 0.000002 3.354862 17.665989 3.441961 -2.086647 -1.020519 1.603280 -16.905625 -0.981872 1.662599 -10.743153 12.664589 1.029309 -13.698002 0.270117 -0.660804 -11.328480 0.258814 -0.671292 -7.207487 12.352547 -0.944994 -18.260326 2.057568 -3.405206 -16.165677 1.972978 -3.520723 -10.223607 9.022042 -0.967404 -17.636760 2.318277 -2.648311 -21.977532 2.240504 -2.824664 -13.925356 -11.543061 -38.275904 -31.897021 4.668271 48.078915 11.077738 8.336365 -14.374609 19.245418 0.000000 0.000000 0.000000 36.494898 -43.668619 28.659258 -4.757405 63.981905 -26.469930 -10.003339 -11.470811 -8.675485 0.000000 -4.641859 -0.000000
0.358512 0.799840 0.268210 1.410689 6.620999 0.373176 -4.500356 1.755942 -0.973308 -1.953889 -5.036358 -0.417054 -1.946462 0.780705 -0.615381 -1.505989 6.423991 -0.462056 -3.413769 18.669801 -1.759418 -5.694387 -1.362512 -2.126523 9.846496 1.354187 2.964591 25.096203 -65.719618 26.387851 70.809729 29.317427 4.521992 12.169599 34.322444 -47.566471 25.046198 0.000000 -0.000000 -25.046198 0.000000 0.000000 -0.000000 0.000000 -0.000000 -0.000000 0.000000 -0.000000 -0.000000 0.000000 -0.000000 -0.000000 0.000000 -0.000000 -0.000000 0.000000 -0.000000 -0.000000 0.000000 -0.000000 -0.000000 0.000000 -0.000000 -0.000000 0.000000 -0.000000 -0.000000 0.000000 -0.000000 -0.000000 0.000000 -0.000000 -0.000000 0.000000 -0.000000 -0.000000 0.000000 -0.000000 -0.000000 0.000000 -0.000000 -3.036417 1.181258 -7.030540 -14.015316 -41.660118 -62.167062 -10.027845 -23.104895 -8.941258 -11.065777 -0.580849 54.467392 -73.806025 61.129529 -39.609460 -0.000006 0.000010 -10.015545 0.000007 0.000002 3.354862 17.665989 3.441961 -2.086647 -1.020519 1.603280 -16.905625 -0.981872 1.662599 -10.743153 12.664589 1.029309 -13.698002 0.270117 -0.660804 -11.328480 0.258814 -0.671292 -7.207487 12.352547 -0.944994 -18.260326 2.057568 -3.405206 -16.165677 1.972978 -3.520723 -10.223607 9.022042 -0.967404 -17.636760 2.318277 -2.648311 -21.977532 2.240504 -2.824664 -13.925356 -11.602899 -38.221679 -31.875153 4.630191 48.030660 11.060054 8.323504 -14.358759 19.285233 -0.000000 0.000000 -0.000000 36.528722 -43.767628 28.611879 -4.765346 64.068899 -26.458826 -9.952396 -11.559011 -8.582053 -0.000000 -4.733725 0.000000
